<?xml version="1.0" standalone="no"?>
<!DOCTYPE svg PUBLIC "-//W3C//DTD SVG 20010904//EN"
 "http://www.w3.org/TR/2001/REC-SVG-20010904/DTD/svg10.dtd">
<svg version="1.0" xmlns="http://www.w3.org/2000/svg"
 width="69.000000pt" height="74.000000pt" viewBox="0 0 69.000000 74.000000"
 preserveAspectRatio="xMidYMid meet">

<g transform="translate(0.000000,74.000000) scale(0.100000,-0.100000)"
fill="#000000" stroke="none">
<path d="M443 640 c-39 -24 -55 -53 -55 -99 1 -35 -2 -37 -84 -83 l-85 -47
-32 19 c-48 30 -102 26 -137 -9 -52 -51 -52 -111 0 -162 35 -35 89 -39 138 -9
l32 20 85 -48 85 -47 0 -41 c0 -48 25 -85 70 -104 65 -27 150 29 150 98 0 36
-28 88 -56 103 -37 19 -90 16 -122 -8 l-27 -20 -88 49 c-86 49 -87 50 -87 88
0 38 1 39 87 88 86 50 87 50 110 32 37 -29 77 -34 117 -15 34 16 66 65 66 99
0 38 -29 83 -63 99 -45 22 -65 21 -104 -3z m115 -47 c44 -48 6 -123 -61 -123
-82 0 -108 113 -33 146 38 16 64 10 94 -23z m-384 -194 c35 -28 36 -80 1 -114
-35 -35 -76 -33 -109 6 -29 34 -32 50 -14 82 26 50 77 61 122 26z m379 -206
c58 -66 -1 -160 -83 -132 -83 30 -60 149 29 149 23 0 44 -7 54 -17z"/>
</g>
</svg>
