<?xml version="1.0" standalone="no"?>
<!DOCTYPE svg PUBLIC "-//W3C//DTD SVG 20010904//EN"
 "http://www.w3.org/TR/2001/REC-SVG-20010904/DTD/svg10.dtd">
<svg version="1.0" xmlns="http://www.w3.org/2000/svg"
 width="69.000000pt" height="74.000000pt" viewBox="0 0 69.000000 74.000000"
 preserveAspectRatio="xMidYMid meet">

<g transform="translate(0.000000,74.000000) scale(0.100000,-0.100000)"
fill="#000000" stroke="none">
<path d="M216 699 c-15 -12 -26 -30 -26 -44 0 -23 -4 -24 -72 -27 -57 -2 -73
-6 -73 -18 0 -8 10 -16 23 -18 l22 -3 0 -224 c0 -222 0 -224 24 -252 l24 -28
182 0 182 0 24 28 c24 28 24 30 24 252 l0 224 23 3 c12 2 22 10 22 18 0 12
-16 16 -72 18 -69 3 -73 4 -73 27 0 44 -43 65 -130 65 -63 0 -82 -4 -104 -21z
m185 -19 c10 -6 19 -20 19 -30 0 -19 -7 -20 -100 -20 -92 0 -100 1 -100 20 0
10 8 24 18 29 22 14 138 14 163 1z m119 -307 c0 -120 -4 -223 -8 -229 -18 -27
-56 -34 -192 -34 -136 0 -174 7 -192 34 -4 6 -8 109 -8 229 l0 217 200 0 200
0 0 -217z"/>
<path d="M305 508 c-3 -13 -4 -90 -3 -173 3 -125 5 -150 18 -150 13 0 15 25
18 150 3 153 -1 195 -18 195 -5 0 -12 -10 -15 -22z"/>
<path d="M197 503 c-4 -3 -7 -73 -7 -155 0 -115 3 -149 13 -146 9 3 13 44 15
148 2 132 -3 172 -21 153z"/>
<path d="M425 498 c-3 -8 -4 -76 -3 -153 2 -100 6 -140 16 -143 15 -5 18 293
2 303 -6 3 -12 0 -15 -7z"/>
</g>
</svg>
