<?xml version="1.0" standalone="no"?>
<!DOCTYPE svg PUBLIC "-//W3C//DTD SVG 20010904//EN"
 "http://www.w3.org/TR/2001/REC-SVG-20010904/DTD/svg10.dtd">
<svg version="1.0" xmlns="http://www.w3.org/2000/svg"
 width="69.000000pt" height="74.000000pt" viewBox="0 0 69.000000 74.000000"
 preserveAspectRatio="xMidYMid meet">

<g transform="translate(0.000000,74.000000) scale(0.100000,-0.100000)"
fill="#000000" stroke="none">
<path d="M175 666 c-16 -8 -40 -23 -52 -35 -23 -21 -23 -26 -23 -272 0 -160 4
-258 11 -271 22 -41 65 -48 284 -48 l205 0 0 235 0 235 -209 0 c-196 0 -210 1
-235 21 -35 28 -35 70 0 98 25 20 39 21 235 21 179 0 209 2 209 15 0 13 -28
15 -197 15 -144 -1 -206 -4 -228 -14z m201 -186 l194 0 -2 -202 -3 -203 -191
-3 c-181 -2 -192 -1 -217 19 l-27 20 0 194 0 195 26 -10 c14 -6 113 -10 220
-10z"/>
<path d="M336 392 c-20 -33 -84 -228 -77 -235 14 -14 29 0 36 33 6 28 9 30 54
30 45 0 49 -2 57 -32 11 -38 34 -50 33 -16 0 33 -72 221 -86 225 -6 2 -14 0
-17 -5z m27 -79 c2 -10 8 -26 12 -35 6 -15 2 -18 -25 -18 -27 0 -31 3 -25 18
4 9 10 25 12 35 3 9 9 17 13 17 4 0 10 -8 13 -17z"/>
<path d="M190 575 c0 -13 23 -15 175 -13 237 4 238 22 3 26 -155 2 -178 0
-178 -13z"/>
</g>
</svg>
