<?xml version="1.0" standalone="no"?>
<!DOCTYPE svg PUBLIC "-//W3C//DTD SVG 20010904//EN"
 "http://www.w3.org/TR/2001/REC-SVG-20010904/DTD/svg10.dtd">
<svg version="1.0" xmlns="http://www.w3.org/2000/svg"
 width="69.000000pt" height="74.000000pt" viewBox="0 0 69.000000 74.000000"
 preserveAspectRatio="xMidYMid meet">

<g transform="translate(0.000000,74.000000) scale(0.100000,-0.100000)"
fill="#000000" stroke="none">
<path d="M505 689 c-19 -5 -69 -48 -128 -107 -92 -94 -97 -102 -97 -141 0 -49
14 -81 35 -81 17 0 20 26 5 35 -5 3 -10 21 -10 38 0 28 15 47 98 130 81 81
103 97 128 97 38 0 77 -29 93 -69 17 -40 1 -68 -93 -161 -68 -67 -91 -100 -68
-100 4 0 50 43 102 95 91 92 95 97 95 140 0 35 -6 50 -30 76 -24 25 -85 62
-97 58 -2 0 -17 -5 -33 -10z"/>
<path d="M130 375 c-91 -92 -95 -97 -95 -140 0 -35 6 -50 30 -76 17 -17 44
-37 61 -45 55 -23 90 -5 197 105 92 93 97 101 97 140 0 49 -14 81 -35 81 -17
0 -20 -26 -5 -35 6 -3 10 -21 10 -38 0 -28 -15 -47 -98 -130 -81 -81 -103 -97
-128 -97 -38 0 -77 29 -93 69 -17 40 -1 68 93 161 68 67 91 100 68 100 -4 0
-50 -43 -102 -95z"/>
</g>
</svg>
