<?xml version="1.0" standalone="no"?>
<!DOCTYPE svg PUBLIC "-//W3C//DTD SVG 20010904//EN"
 "http://www.w3.org/TR/2001/REC-SVG-20010904/DTD/svg10.dtd">
<svg version="1.0" xmlns="http://www.w3.org/2000/svg"
 width="69.000000pt" height="74.000000pt" viewBox="0 0 69.000000 74.000000"
 preserveAspectRatio="xMidYMid meet">

<g transform="translate(0.000000,74.000000) scale(0.100000,-0.100000)"
fill="currentColor" stroke="none">
<path d="M245 587 c-50 -45 -119 -108 -155 -139 -47 -41 -62 -60 -54 -68 8 -8
20 -4 42 14 16 14 33 26 36 26 3 0 7 -78 8 -173 l3 -172 80 0 80 0 3 98 3 97
59 0 59 0 3 -97 3 -98 68 -3 c42 -2 74 2 83 9 11 9 14 46 14 175 0 90 3 164 7
164 4 0 20 -12 35 -27 22 -21 31 -24 40 -15 7 7 8 15 3 20 -6 5 -76 68 -157
140 -81 73 -153 132 -160 132 -7 -1 -54 -38 -103 -83z m208 -43 l97 -87 0
-178 0 -179 -55 0 -55 0 0 88 c0 48 -5 94 -10 102 -7 11 -28 15 -80 15 -52 0
-73 -4 -80 -15 -5 -8 -10 -54 -10 -102 l0 -88 -55 0 -55 0 0 179 0 179 96 86
c53 47 99 86 103 86 4 0 50 -39 104 -86z"/>
</g>
</svg>
