<?xml version="1.0" standalone="no"?>
<!DOCTYPE svg PUBLIC "-//W3C//DTD SVG 20010904//EN"
 "http://www.w3.org/TR/2001/REC-SVG-20010904/DTD/svg10.dtd">
<svg version="1.0" xmlns="http://www.w3.org/2000/svg"
 width="69.000000pt" height="74.000000pt" viewBox="0 0 69.000000 74.000000"
 preserveAspectRatio="xMidYMid meet">

<g transform="translate(0.000000,74.000000) scale(0.100000,-0.100000)"
fill="#000000" stroke="none">
<path d="M20 695 c0 -9 18 -23 45 -35 l45 -19 0 -207 0 -206 30 -28 c21 -19
30 -37 30 -59 0 -33 30 -71 56 -71 19 0 56 19 66 34 4 6 8 26 8 44 l0 32 78 0
78 0 -4 -34 c-3 -27 1 -37 23 -55 34 -26 56 -27 83 -3 32 26 37 63 12 95 l-21
27 -189 0 c-206 0 -220 4 -220 58 l0 27 208 -3 c262 -4 255 -7 260 125 3 66 0
92 -10 100 -7 6 -103 23 -213 37 -267 36 -245 29 -245 74 0 37 -2 39 -52 58
-29 10 -56 21 -60 22 -4 2 -8 -4 -8 -13z m348 -172 l202 -27 0 -76 c0 -46 -5
-81 -12 -88 -8 -8 -67 -12 -199 -12 -157 0 -190 3 -203 16 -21 20 -24 214 -3
214 6 0 103 -12 215 -27z m-110 -355 c30 -30 -4 -77 -41 -57 -29 17 -15 69 18
69 6 0 16 -5 23 -12z m286 -4 c29 -28 -10 -71 -46 -52 -21 10 -23 39 -6 56 16
16 33 15 52 -4z"/>
</g>
</svg>
