<?xml version="1.0" standalone="no"?>
<!DOCTYPE svg PUBLIC "-//W3C//DTD SVG 20010904//EN"
 "http://www.w3.org/TR/2001/REC-SVG-20010904/DTD/svg10.dtd">
<svg version="1.0" xmlns="http://www.w3.org/2000/svg"
 width="69.000000pt" height="74.000000pt" viewBox="0 0 69.000000 74.000000"
 preserveAspectRatio="xMidYMid meet">

<g transform="translate(0.000000,74.000000) scale(0.100000,-0.100000)"
fill="#000000" stroke="none">
<path d="M336 655 c-3 -9 -6 -82 -6 -161 0 -114 -3 -144 -13 -144 -22 0 -47
-35 -54 -74 -5 -32 -2 -40 31 -70 33 -32 36 -39 36 -93 0 -32 4 -64 9 -72 17
-27 31 1 31 65 0 62 2 67 35 98 25 24 35 42 35 63 0 33 -33 83 -55 83 -12 0
-15 30 -17 157 -2 105 -7 158 -14 160 -6 2 -14 -3 -18 -12z m60 -360 c19 -28
11 -60 -18 -76 -29 -15 -63 -4 -77 27 -27 60 58 105 95 49z"/>
<path d="M557 663 c-4 -3 -7 -42 -7 -85 0 -61 -3 -78 -14 -78 -23 0 -56 -50
-56 -83 0 -21 10 -39 35 -63 l35 -33 0 -140 c0 -92 4 -142 11 -147 22 -13 29
23 29 154 l0 133 36 35 c33 30 36 38 31 70 -7 39 -32 74 -54 74 -10 0 -13 18
-13 69 0 88 -10 117 -33 94z m48 -208 c14 -13 25 -29 25 -35 0 -16 -47 -60
-64 -60 -15 0 -56 45 -56 62 0 13 47 58 60 58 6 0 22 -11 35 -25z"/>
<path d="M116 638 c-3 -13 -6 -49 -6 -80 0 -42 -4 -58 -13 -58 -22 0 -47 -35
-54 -74 -5 -32 -2 -40 31 -70 l36 -35 0 -133 c0 -131 7 -167 29 -154 7 5 11
55 11 147 l0 140 35 33 c25 24 35 42 35 63 0 33 -33 83 -56 83 -11 0 -14 16
-14 69 0 46 -5 72 -14 80 -11 9 -15 7 -20 -11z m49 -183 c14 -13 25 -28 25
-33 0 -17 -41 -62 -56 -62 -17 0 -64 44 -64 60 0 14 46 60 60 60 6 0 22 -11
35 -25z"/>
</g>
</svg>
